<svg xmlns="http://www.w3.org/2000/svg" xmlns:xlink="http://www.w3.org/1999/xlink" width="150" zoomAndPan="magnify" viewBox="0 0 112.5 112.499997" height="150" preserveAspectRatio="xMidYMid meet" version="1.0"><defs><clipPath id="53c17f7a43"><path d="M 21 22 L 91 22 L 91 89 L 21 89 Z M 21 22 " clip-rule="nonzero"/></clipPath><clipPath id="f9ca66accf"><path d="M 19.179688 58.433594 L 65.386719 20.574219 L 92.359375 53.496094 L 46.152344 91.355469 Z M 19.179688 58.433594 " clip-rule="nonzero"/></clipPath><clipPath id="5ff3f5caf4"><path d="M 19.179688 58.433594 L 65.386719 20.574219 L 92.359375 53.496094 L 46.152344 91.355469 Z M 19.179688 58.433594 " clip-rule="nonzero"/></clipPath></defs><g clip-path="url(#53c17f7a43)"><g clip-path="url(#f9ca66accf)"><g clip-path="url(#5ff3f5caf4)"><path fill="#ffbd33" d="M 24.160156 54.355469 C 21.410156 56.609375 21.003906 60.660156 23.261719 63.410156 C 29.503906 70.90625 35.988281 78.945312 42.289062 86.636719 C 44.457031 89.285156 48.273438 89.742188 51.011719 87.765625 L 88.046875 57.464844 C 90.613281 55.183594 90.9375 51.261719 88.738281 48.578125 L 69.011719 24.5 C 66.683594 22.484375 63.195312 22.375 60.734375 24.390625 C 48.554688 34.378906 36.347656 44.371094 24.160156 54.355469 Z M 26.226562 57.039062 L 63.035156 26.882812 L 59.816406 59.28125 C 59.757812 59.871094 59.242188 60.292969 58.648438 60.234375 Z M 66.332031 26.304688 L 86.101562 50.4375 C 87.28125 51.875 87.425781 53.113281 86.628906 54.25 L 63.78125 51.957031 Z M 25.226562 60.152344 L 50.457031 62.660156 L 48.167969 85.71875 C 47.058594 86.136719 46.183594 85.6875 45.382812 84.753906 Z M 53.640625 62.953125 L 61.539062 63.757812 C 62.128906 63.816406 62.644531 63.394531 62.703125 62.804688 L 63.464844 55.164062 L 83.363281 57.140625 L 51.636719 83.136719 L 53.644531 62.953125 Z M 53.640625 62.953125 " fill-opacity="1" fill-rule="nonzero"/></g></g></g><path stroke-linecap="round" transform="matrix(0.746681, 0, 0, 0.746681, 19.177311, 27.840862)" fill="none" stroke-linejoin="miter" d="M 2.001609 2.002294 L 38.726611 2.002294 " stroke="#ffbd33" stroke-width="4" stroke-opacity="1" stroke-miterlimit="4"/><path stroke-linecap="round" transform="matrix(0.746681, -0.000000000000000185, 0.000000000000000185, 0.746681, 19.177311, 33.774754)" fill="none" stroke-linejoin="miter" d="M 2.001609 2.001894 L 27.185962 2.001894 " stroke="#ffbd33" stroke-width="4" stroke-opacity="1" stroke-miterlimit="4"/><path stroke-linecap="round" transform="matrix(0.746681, 0.000000000000000276, -0.000000000000000276, 0.746681, 19.177311, 39.955891)" fill="none" stroke-linejoin="miter" d="M 2.001609 1.999954 L 17.25661 1.999954 " stroke="#ffbd33" stroke-width="4" stroke-opacity="1" stroke-miterlimit="4"/><path stroke-linecap="round" transform="matrix(0.746681, 0, 0, 0.746681, 19.177311, 78.27894)" fill="none" stroke-linejoin="miter" d="M 2.001609 2.001519 L 17.25661 2.001519 " stroke="#ffbd33" stroke-width="4" stroke-opacity="1" stroke-miterlimit="4"/></svg>